<svg width="15" height="21" viewBox="0 0 15 21" fill="none" xmlns="http://www.w3.org/2000/svg">
<path d="M14.7 7.35C14.7 6.38478 14.5099 5.42902 14.1405 4.53728C13.7711 3.64553 13.2297 2.83528 12.5472 2.15277C11.8647 1.47025 11.0545 0.928857 10.1627 0.559485C9.27098 0.190113 8.31522 0 7.35 0C6.38478 0 5.42902 0.190113 4.53728 0.559485C3.64553 0.928857 2.83528 1.47025 2.15277 2.15277C1.47025 2.83528 0.928857 3.64553 0.559485 4.53728C0.190113 5.42902 -1.43828e-08 6.38478 0 7.35C0 8.80635 0.4305 10.1608 1.16025 11.3033H1.15185C3.62985 15.183 7.35 21 7.35 21L13.5481 11.3033H13.5408C14.2972 10.1234 14.6995 8.75148 14.7 7.35ZM7.35 10.5C6.51457 10.5 5.71335 10.1681 5.12261 9.57739C4.53187 8.98665 4.2 8.18543 4.2 7.35C4.2 6.51457 4.53187 5.71335 5.12261 5.12261C5.71335 4.53187 6.51457 4.2 7.35 4.2C8.18543 4.2 8.98665 4.53187 9.57739 5.12261C10.1681 5.71335 10.5 6.51457 10.5 7.35C10.5 8.18543 10.1681 8.98665 9.57739 9.57739C8.98665 10.1681 8.18543 10.5 7.35 10.5Z" fill="#FB1242"/>
</svg>
