<svg width="320" height="414" viewBox="0 0 320 414" fill="none" xmlns="http://www.w3.org/2000/svg">
<path d="M219.683 211.794C74.5274 162.188 172.403 102.763 221.665 79.3276C222.339 79.008 222.109 78 221.364 78H186.222C180.664 78 175.172 79.2862 170.09 81.7702C114.283 109.048 1.76049 175.414 92.6655 231.074C196.911 294.901 85.1515 378.249 26.6632 414H256.008C286.679 370.223 350.228 256.405 219.683 211.794Z" fill="#665E68"/>
<path d="M26.6632 414H77.0474C137.139 372.579 229.11 290.58 131.43 226.845C49.899 173.646 132.004 111.271 190.065 78H186.222C180.664 78 175.172 79.2862 170.09 81.7702C114.283 109.048 1.76049 175.414 92.6655 231.074C196.911 294.901 85.1515 378.249 26.6632 414Z" fill="#554E56"/>
<path d="M134.711 124.816C133.058 124.816 131.437 124.01 130.463 122.524C128.926 120.18 129.58 117.035 131.924 115.498C134.167 114.027 135.579 113.22 135.637 113.187C138.072 111.799 141.172 112.649 142.558 115.084C143.945 117.518 143.096 120.615 140.664 122.003C140.63 122.022 139.422 122.716 137.489 123.984C136.631 124.547 135.666 124.816 134.711 124.816Z" fill="#DFEBFA"/>
<path d="M183.021 368.02C181.786 368.02 180.548 367.571 179.571 366.665C177.517 364.759 177.396 361.548 179.303 359.494C181.15 357.504 182.951 355.479 184.658 353.475C186.476 351.341 189.678 351.084 191.811 352.902C193.944 354.719 194.201 357.922 192.383 360.055C190.584 362.168 188.686 364.301 186.742 366.397C185.743 367.474 184.384 368.02 183.021 368.02Z" fill="#DFEBFA"/>
<path d="M204.527 339.443C203.669 339.443 202.8 339.225 202.003 338.767C199.573 337.371 198.736 334.269 200.133 331.839C201.475 329.504 202.712 327.157 203.81 324.863C205.019 322.336 208.049 321.266 210.577 322.476C213.105 323.685 214.174 326.715 212.964 329.243C211.757 331.766 210.4 334.342 208.93 336.897C207.992 338.529 206.284 339.443 204.527 339.443Z" fill="#DFEBFA"/>
<path d="M215.948 305.793C215.813 305.793 215.677 305.788 215.541 305.776C212.747 305.555 210.662 303.111 210.883 300.317C210.992 298.949 211.047 297.575 211.047 296.232C211.048 295.091 211.008 293.942 210.929 292.817C210.733 290.021 212.84 287.596 215.635 287.4C218.424 287.202 220.856 289.311 221.052 292.107C221.147 293.468 221.196 294.856 221.195 296.233C221.195 297.841 221.129 299.486 221 301.119C220.79 303.776 218.568 305.793 215.948 305.793Z" fill="#DFEBFA"/>
<path d="M207.083 271.808C205.437 271.808 203.822 271.008 202.846 269.532C201.488 267.478 199.939 265.434 198.241 263.456C196.417 261.329 196.662 258.125 198.789 256.3C200.916 254.475 204.119 254.72 205.944 256.848C207.915 259.145 209.721 261.529 211.311 263.933C212.856 266.271 212.215 269.419 209.877 270.965C209.016 271.535 208.044 271.808 207.083 271.808Z" fill="#DFEBFA"/>
<path d="M181.148 247.484C180.205 247.484 179.252 247.223 178.402 246.674C176.241 245.28 173.946 243.895 171.58 242.558C169.14 241.179 168.281 238.083 169.66 235.644C171.039 233.204 174.135 232.345 176.574 233.724C179.111 235.157 181.576 236.645 183.902 238.145C186.257 239.664 186.935 242.804 185.416 245.159C184.447 246.664 182.814 247.484 181.148 247.484Z" fill="#DFEBFA"/>
<path d="M149.378 231.024C148.607 231.024 147.824 230.848 147.088 230.475C144.517 229.172 142.003 227.838 139.617 226.511C137.168 225.148 136.286 222.059 137.649 219.61C139.011 217.16 142.1 216.278 144.55 217.641C146.823 218.906 149.221 220.178 151.677 221.423C154.176 222.69 155.176 225.743 153.908 228.243C153.015 230.007 151.23 231.024 149.378 231.024Z" fill="#DFEBFA"/>
<path d="M119.31 211.733C118.146 211.733 116.977 211.335 116.021 210.521C113.724 208.563 111.575 206.554 109.634 204.551C107.684 202.539 107.735 199.326 109.748 197.376C111.762 195.426 114.973 195.478 116.923 197.491C118.64 199.263 120.551 201.049 122.604 202.798C124.737 204.616 124.993 207.819 123.174 209.952C122.171 211.128 120.745 211.733 119.31 211.733Z" fill="#DFEBFA"/>
<path d="M99.6656 182.577C97.3176 182.577 95.2097 180.939 94.7057 178.549C94.1282 175.811 93.8355 173.015 93.8355 170.238C93.8348 169.88 93.8401 169.517 93.8499 169.155C93.9267 166.353 96.2676 164.156 99.0612 164.221C101.863 164.298 104.072 166.631 103.995 169.433C103.988 169.699 103.984 169.965 103.984 170.233C103.984 172.312 104.204 174.404 104.636 176.454C105.214 179.196 103.461 181.888 100.718 182.466C100.365 182.542 100.012 182.577 99.6656 182.577Z" fill="#DFEBFA"/>
<path d="M108.506 148.981C107.474 148.981 106.433 148.668 105.534 148.017C103.264 146.373 102.756 143.2 104.4 140.931C106.057 138.643 107.926 136.343 109.956 134.095C111.832 132.015 115.041 131.849 117.122 133.728C119.203 135.606 119.367 138.814 117.489 140.895C115.703 142.874 114.065 144.889 112.621 146.883C111.628 148.254 110.078 148.981 108.506 148.981Z" fill="#DFEBFA"/>
<path d="M159.781 389.579C158.248 389.579 156.733 388.887 155.735 387.571C154.041 385.339 154.478 382.156 156.71 380.462C156.719 380.454 157.835 379.605 159.709 378.056C161.868 376.269 165.068 376.573 166.853 378.732C168.639 380.891 168.336 384.09 166.177 385.876C164.121 387.577 162.896 388.507 162.845 388.546C161.927 389.242 160.85 389.579 159.781 389.579Z" fill="#DFEBFA"/>
<path d="M231.296 199.627C92.9662 156.875 172.779 108.192 223.996 83.1155C226.389 81.9441 225.627 78 223.009 78H221.106C172.928 100.445 68.3214 161.222 216.304 211.794C346.847 256.405 283.298 370.223 252.628 414H278.621C285.129 414 291.107 410.054 294.181 403.724C323.649 343.049 351.151 236.669 231.296 199.627Z" fill="#FB1242"/>
<path d="M94.0174 231.074C26.8089 189.923 69.4454 142.92 119.498 110.187C63.5031 141.588 -0.715545 193.198 74.5609 239.287C162.729 293.271 70.2421 361.217 2.86102 402.52C-2.14486 405.59 -0.162982 414 5.56411 414H28.0151C86.504 378.249 198.264 294.901 94.0174 231.074Z" fill="#FB1242"/>
<path d="M160.674 87.8514C161.377 89.2311 160.829 90.9194 159.449 91.6224C158.069 92.3255 156.381 91.7769 155.678 90.3971C154.975 89.0174 155.523 87.3291 156.903 86.6261C158.283 85.923 159.971 86.4716 160.674 87.8514Z" fill="#111E30"/>
<path d="M145.679 24.8356C145.679 24.8356 146.863 26.0829 148.355 24.248C149.847 22.4129 152.451 23.8411 151.422 25.5931C150.393 27.3455 149.027 28.2783 146.599 26.9097C146.599 26.9097 140.384 32.3934 140.098 30.3871C139.812 28.381 143.091 25.8077 145.679 24.8356Z" fill="#EF9411"/>
<path d="M140.125 30.5133C140.125 30.5133 138.42 27.536 139.386 25.7745C140.353 24.0126 143.952 22.8981 144.991 22.8204C146.031 22.7423 147.067 25.3036 147.067 25.3036C147.067 25.3036 141.88 28.0387 140.125 30.5133Z" fill="#F9A715"/>
<path d="M156.932 29.1748L150.542 27.6871C150.542 27.6871 151.791 27.1523 150.367 25.9502C148.943 24.7484 145.975 25.1953 147.202 27.1063C147.202 27.1063 143.924 27.055 142.735 28.8074C140.19 32.5548 145.624 36.0599 148.246 35.3324C150.869 34.6054 151.245 32.5557 151.245 32.5557L154.545 35.1054L156.932 29.1748Z" fill="#643022"/>
<path d="M200.508 50.3682L186.323 57.5961L182.636 50.3608L196.822 43.1329L200.508 50.3682Z" fill="#4791D5"/>
<path d="M200.265 41.3785L186.079 48.6064L182.393 41.3715L196.579 34.1436L200.265 41.3785Z" fill="#F3656F"/>
<path d="M143.624 31.6465C143.624 31.6465 146.085 33.8584 146.292 33.7407C146.499 33.6221 147.185 32.1753 147.185 32.1753L143.624 31.6465Z" fill="#844B3C"/>
<path d="M146.075 35.1736C146.075 35.1736 149.806 36.7098 151.344 32.5748L150.463 27.5685L150.375 29.467L147.417 28.3724L147.276 27.0698L147.123 26.9874C147.123 26.9874 147.469 32.0913 145.22 34.78L146.075 35.1736Z" fill="white"/>
<path d="M145.793 29.5816C145.793 29.5816 145.463 28.8568 144.971 29.379C144.48 29.9013 143.974 30.5478 144.154 30.8638C144.335 31.1801 146.094 29.9285 145.793 29.5816Z" fill="#111E30"/>
<path d="M143.036 33.3983C143.036 33.3983 143.656 33.8985 143.799 33.3026C143.942 32.7067 144.036 32.0029 143.737 31.7965C143.438 31.5906 142.624 33.2053 143.036 33.3983Z" fill="#111E30"/>
<path d="M145.794 30.5015C146 30.5938 146.125 30.7649 146.072 30.8825C146.02 31.0006 145.81 31.0212 145.603 30.9291C145.396 30.8365 145.271 30.6658 145.324 30.548C145.377 30.4299 145.587 30.4093 145.794 30.5015Z" fill="#111E30"/>
<path d="M144.603 32.6962C144.809 32.7886 144.934 32.9595 144.881 33.0773C144.828 33.1956 144.618 33.2162 144.411 33.1241C144.205 33.0317 144.08 32.8606 144.133 32.7428C144.185 32.6247 144.396 32.6039 144.603 32.6962Z" fill="#111E30"/>
<path d="M168.017 84.595C170.684 89.83 168.595 96.2596 163.36 98.9269C158.125 101.594 151.696 99.5049 149.028 94.2699C146.361 89.0349 148.45 82.6062 153.685 79.9388C158.92 77.2715 165.349 79.36 168.017 84.595ZM169.832 83.6701C166.654 77.4339 158.996 74.9457 152.76 78.1232C146.524 81.3007 144.035 88.9589 147.213 95.1951C150.39 101.431 158.049 103.92 164.285 100.743C170.522 97.5651 173.009 89.9063 169.832 83.6701Z" fill="#111E30"/>
<path d="M209.786 63.3122C212.454 68.5471 210.365 74.9767 205.13 77.6441C199.895 80.3115 193.466 78.2221 190.798 72.9871C188.131 67.7521 190.22 61.3234 195.455 58.656C200.69 55.9886 207.119 58.0772 209.786 63.3122ZM211.602 62.3872C208.424 56.151 200.766 53.663 194.53 56.8403C188.294 60.0178 185.805 67.676 188.983 73.9122C192.16 80.1484 199.819 82.6373 206.055 79.4598C212.291 76.2825 214.779 68.6234 211.602 62.3872Z" fill="#111E30"/>
<path d="M158.267 89.5626C157.987 89.5901 157.738 89.3855 157.711 89.1053L154.975 61.1011L151.353 58.8827L151.885 58.0136L155.94 60.4979L158.725 89.0064C158.752 89.2864 158.547 89.5357 158.267 89.5626Z" fill="#F9A715"/>
<path d="M175.375 62.1592L156.928 71.5583L156.465 70.6502L174.912 61.2511L175.375 62.1592Z" fill="#F9A715"/>
<path d="M179.088 78.8406L178.084 79.016L173.576 53.2392L174.58 53.0633L179.088 78.8406Z" fill="#F9A715"/>
<path d="M200.807 68.8634L183.328 77.7696L182.865 76.8619L198.782 68.752C194.675 68.4476 183.977 67.7819 176.437 67.3281L176.499 66.3111C176.499 66.3111 182.52 66.6738 188.544 67.053C192.043 67.2734 194.831 67.4551 196.834 67.5925C200.988 67.8777 200.988 67.8777 201.076 68.303L200.807 68.8634Z" fill="#F9A715"/>
<path d="M182.956 75.7278C184.296 78.3588 183.251 81.578 180.619 82.9187C177.988 84.2593 174.769 83.213 173.429 80.5821C172.088 77.9511 173.134 74.7319 175.765 73.3914C178.396 72.0506 181.615 73.0969 182.956 75.7278Z" fill="#111E30"/>
<path d="M203.075 67.1361C203.778 68.5159 203.229 70.2041 201.849 70.9074C200.47 71.6102 198.781 71.0619 198.078 69.6821C197.375 68.3023 197.924 66.6138 199.303 65.911C200.683 65.2078 202.372 65.7563 203.075 67.1361Z" fill="#111E30"/>
<path d="M201.474 50.4379L176.168 63.3319L175.937 62.8778L201.243 49.9837L201.474 50.4379Z" fill="#F9A715"/>
<path d="M200.728 68.3319L200.425 68.4862L193.109 54.128L193.412 53.9737L200.728 68.3319Z" fill="#F9A715"/>
<path d="M186.893 67.7211L186.59 67.8756L182.373 59.5986L182.676 59.4441L186.893 67.7211Z" fill="#F9A715"/>
<path d="M176.762 49.4752L170.509 54.5824C170.092 54.9233 169.969 55.5088 170.213 55.9886C170.501 56.5522 171.19 56.7761 171.753 56.4892L179.014 52.7897C179.638 52.4716 179.833 51.673 179.425 51.1031L178.418 49.6956C178.033 49.1579 177.274 49.0566 176.762 49.4752Z" fill="#111E30"/>
<path d="M162.815 46.7939C162.815 46.7939 154.81 56.3306 158.205 65.1998C161.601 74.0689 172.725 73.5573 172.725 73.5573L176.266 70.8336C176.266 70.8336 171.722 64.865 167.553 61.2481C167.553 61.2481 170.801 55.9653 175.002 51.3955C175.76 50.5706 175.567 49.2591 174.607 48.6809C172.746 47.5607 166.086 45.5769 162.815 46.7939Z" fill="#4791D5"/>
<path d="M174.544 51.9012C174.544 51.9012 183.007 44.6698 175.381 35.5913C168.779 27.7315 159.23 25.404 153.198 31.4751C149.052 35.6473 155.232 41.6821 155.232 41.6821C158.896 42.112 163.056 45.0273 161.092 47.7024C159.43 49.9654 171.761 46.9407 174.544 51.9012Z" fill="#307FC2"/>
<path d="M187.834 20.487L177.101 39.0327L156.496 27.1088L167.229 8.56293C167.559 7.99207 168.29 7.79692 168.861 8.12755L187.398 18.8547C187.969 19.1853 188.164 19.9157 187.834 20.487Z" fill="#F9A715"/>
<path d="M190.283 16.3774L188.332 19.7496C187.885 20.5202 186.899 20.7838 186.128 20.3377L173.56 13.0646C172.789 12.6185 172.526 11.6319 172.972 10.8611L174.924 7.48881C175.37 6.71775 176.356 6.45466 177.128 6.90078L189.695 14.1738C190.466 14.6197 190.729 15.6065 190.283 16.3774Z" fill="#F9A715"/>
<path d="M185.198 20.2282L176.162 35.8426L159.73 26.3337L168.766 10.7193L185.198 20.2282Z" fill="#FABA48"/>
<path d="M159.428 23.8327L152.466 32.9952L164.395 39.9238L177.08 38.7976L177.122 39.2685L164.287 40.4083L151.765 33.1356L159.051 23.5467L159.428 23.8327Z" fill="#F9A715"/>
<path d="M191.335 55.0423L190.766 55.3321L183.393 40.8619L183.962 40.5721L191.335 55.0423Z" fill="white"/>
<path d="M197.428 51.9378L196.859 52.2274L189.486 37.7572L190.055 37.4676L197.428 51.9378Z" fill="white"/>
<path d="M152.226 54.1648C152.226 54.1648 148.456 57.2775 149.646 60.125C150.837 62.9725 153.916 61.4815 152.482 60.1788C151.048 58.8757 152.814 58.5108 152.814 58.5108C152.814 58.5108 155.181 57.7254 155.074 55.7632C154.966 53.801 152.226 54.1648 152.226 54.1648Z" fill="white"/>
<path d="M152.815 58.5106C153.159 59.1868 152.89 60.0147 152.214 60.3593C151.537 60.704 150.71 60.4348 150.365 59.7586C150.021 59.082 150.289 58.2547 150.966 57.91C151.642 57.5655 152.47 57.834 152.815 58.5106Z" fill="#111E30"/>
<path d="M152.122 36.9908C150.26 32.0882 155.902 27.6823 160.162 30.7401C161.159 31.456 162.159 32.4583 163.09 33.8497C168.754 42.3121 155.074 55.7633 155.074 55.7633L152.226 54.1649C152.226 54.1649 157.019 45.1083 153.289 39.2811C152.778 38.4828 152.398 37.7174 152.122 36.9908Z" fill="#4791D5"/>
<path d="M196.83 43.1485L195.108 44.0257L195.1 44.0101L196.822 43.1329L196.83 43.1485Z" fill="#66A9E1"/>
<path d="M196.822 43.1329L195.1 44.0102L193.081 40.0466L194.802 39.1694L196.822 43.1329Z" fill="#F57E88"/>
<path d="M193.97 53.6895L192.248 54.567L188.573 47.3555L190.296 46.478L193.97 53.6895Z" fill="#66A9E1"/>
<path d="M192.314 54.6964L193.175 54.2575L193.109 54.1281L193.412 53.9739L193.478 54.1033L194.036 53.8189L193.97 53.6895L192.248 54.5669L192.314 54.6964Z" fill="#FAB829"/>
<path d="M193.478 54.1033L193.175 54.2579L193.108 54.1282L193.412 53.9737L193.478 54.1033Z" fill="#FAB829"/>
<path d="M194.149 37.8878L192.428 38.765L191.414 36.7752L193.135 35.898L194.149 37.8878Z" fill="#F57E88"/>
<path d="M188.633 56.4088L186.911 57.286L185.107 53.7449L186.829 52.8677L188.633 56.4088Z" fill="#66A9E1"/>
<path d="M188.699 56.5383L186.978 57.4155L186.912 57.2861L188.633 56.4088L188.699 56.5383Z" fill="#FAB829"/>
<path d="M176.266 70.8336L177.932 72.5406L174.999 74.9247L172.858 73.4894L176.266 70.8336Z" fill="white"/>
<path d="M177.973 72.3415C177.973 72.3415 179.643 73.0806 179.874 74.8649L171.155 81.3933C171.155 81.3933 170.03 79.4264 172.442 77.2096C174.855 74.9925 175.553 74.154 175.553 74.154L177.973 72.3415Z" fill="#F9A715"/>
<path d="M179.459 74.0823L170.639 80.6864C170.446 80.8309 170.406 81.1065 170.55 81.2994C170.695 81.4919 170.97 81.5315 171.163 81.3872L179.984 74.7823C180.177 74.6381 180.216 74.3625 180.072 74.1699C179.928 73.9774 179.652 73.9381 179.459 74.0823Z" fill="#F9A715"/>
<path d="M174.173 80.7386L170.246 83.7138C169.958 83.9323 169.543 83.8751 169.325 83.5869C169.106 83.2985 169.163 82.8839 169.452 82.6657L173.379 79.6904C173.667 79.472 174.081 79.529 174.3 79.8174C174.518 80.1056 174.461 80.5202 174.173 80.7386Z" fill="#4791D5"/>
<path d="M147.956 26.5633C147.956 26.5633 147.44 25.9826 148.074 25.7393C148.709 25.4962 149.299 25.7539 149.747 26.1638C150.195 26.5738 150.08 26.8961 149.662 26.9374C149.244 26.9789 149.299 25.8788 148.627 26.2209C147.956 26.5633 147.956 26.5633 147.956 26.5633Z" fill="#461D16"/>
<path d="M154.624 31.4198C154.635 31.4316 157.06 33.4462 158.487 36.2422C159.199 37.6403 159.664 39.2433 159.422 40.8909C159.061 43.3162 157.59 46.7999 156.21 49.7C154.829 52.5971 153.537 54.897 153.536 54.9L153.123 54.6684C153.123 54.6678 153.203 54.5263 153.345 54.2666C153.842 53.3581 155.095 51.0182 156.299 48.3916C157.503 45.7678 158.656 42.847 158.954 40.8215C159.178 39.3085 158.751 37.801 158.066 36.457C157.382 35.1137 156.443 33.941 155.676 33.1074C155.293 32.6905 154.953 32.3583 154.709 32.131C154.587 32.0172 154.489 31.9295 154.422 31.8708C154.355 31.8121 154.321 31.7833 154.321 31.7833L154.624 31.4198Z" fill="#307FC2"/>
<path d="M167.394 48.9804C167.394 48.9807 167.305 49.1178 167.149 49.3685C166.606 50.2461 165.261 52.4983 164.202 54.9302C163.673 56.1463 163.215 57.4069 162.964 58.5558C162.712 59.7046 162.673 60.7396 162.943 61.4915C162.994 61.6354 163.06 61.7866 163.14 61.9443C163.606 62.8623 164.553 63.9763 165.707 65.1091C167.439 66.8112 169.637 68.5683 171.4 69.8971C172.281 70.5616 173.054 71.1192 173.606 71.5107C173.882 71.7062 174.103 71.8607 174.255 71.9656C174.407 72.0709 174.489 72.1263 174.489 72.1267L174.223 72.5181C174.22 72.5158 171.849 70.9068 169.229 68.8131C167.919 67.7659 166.547 66.5981 165.376 65.4464C164.203 64.2934 163.232 63.1626 162.719 62.1591C162.631 61.9862 162.556 61.8165 162.497 61.6502C162.138 60.6294 162.266 59.329 162.627 57.9378C163.716 53.7718 166.992 48.734 166.997 48.723L167.394 48.9804Z" fill="#307FC2"/>
<path d="M157.398 61.4824C157.398 61.4824 160.369 60.7201 161.414 63.4139C162.46 66.108 161.019 69.4736 161.019 69.4736C161.019 69.4736 158.153 67.1617 157.398 61.4824Z" fill="#307FC2"/>
<path d="M157.929 82.391L157.349 82.4544C156.783 82.5163 156.269 82.1034 156.207 81.537L154.525 66.1321C154.463 65.5657 154.876 65.0518 155.443 64.9903L156.023 64.9267C156.589 64.865 157.103 65.2776 157.165 65.844L158.846 81.2488C158.908 81.8152 158.495 82.3292 157.929 82.391Z" fill="#307FC2"/>
<path d="M177.222 69.4203L177.062 69.4543C176.505 69.573 175.952 69.2139 175.833 68.6568L173.869 59.4196C173.751 58.8621 174.11 58.3092 174.667 58.1909L174.828 58.1567C175.385 58.038 175.938 58.3973 176.056 58.9544L178.02 68.1916C178.139 68.7493 177.78 69.302 177.222 69.4203Z" fill="#307FC2"/>
<path d="M180.761 66.9714L180.773 66.8079C180.818 66.2399 181.319 65.8114 181.887 65.8556L191.302 66.5913C191.87 66.6361 192.298 67.1373 192.254 67.7051L192.241 67.869C192.197 68.4369 191.696 68.8653 191.128 68.8208L181.712 68.085C181.145 68.0402 180.717 67.5394 180.761 66.9714Z" fill="#F9A715"/>
</svg>
