<svg width="95" height="80" viewBox="0 0 95 80" fill="none" xmlns="http://www.w3.org/2000/svg">
<circle cx="4.38356" cy="4.38356" r="4.38356" fill="#FAC102"/>
<circle cx="4.38356" cy="18.6301" r="4.38356" fill="#FAC102"/>
<circle cx="4.38356" cy="32.8767" r="4.38356" fill="#FAC102"/>
<circle cx="4.38356" cy="47.1233" r="4.38356" fill="#FAC102"/>
<circle cx="4.38356" cy="61.3699" r="4.38356" fill="#FAC102"/>
<circle cx="4.38356" cy="75.6164" r="4.38356" fill="#FAC102"/>
<circle cx="18.6301" cy="4.38356" r="4.38356" fill="#FAC102"/>
<circle cx="18.6301" cy="18.6301" r="4.38356" fill="#FAC102"/>
<circle cx="18.6301" cy="32.8767" r="4.38356" fill="#FAC102"/>
<circle cx="18.6301" cy="47.1233" r="4.38356" fill="#FAC102"/>
<circle cx="18.6301" cy="61.3699" r="4.38356" fill="#FAC102"/>
<circle cx="18.6301" cy="75.6164" r="4.38356" fill="#FAC102"/>
<circle cx="32.8767" cy="4.38356" r="4.38356" fill="#FAC102"/>
<circle cx="32.8767" cy="18.6301" r="4.38356" fill="#FAC102"/>
<circle cx="32.8767" cy="32.8767" r="4.38356" fill="#FAC102"/>
<circle cx="32.8767" cy="47.1233" r="4.38356" fill="#FAC102"/>
<circle cx="32.8767" cy="61.3699" r="4.38356" fill="#FAC102"/>
<circle cx="32.8767" cy="75.6164" r="4.38356" fill="#FAC102"/>
<circle cx="47.1233" cy="4.38356" r="4.38356" fill="#FAC102"/>
<circle cx="47.1233" cy="18.6301" r="4.38356" fill="#FAC102"/>
<circle cx="47.1233" cy="32.8767" r="4.38356" fill="#FAC102"/>
<circle cx="47.1233" cy="47.1233" r="4.38356" fill="#FAC102"/>
<circle cx="47.1233" cy="61.3699" r="4.38356" fill="#FAC102"/>
<circle cx="47.1233" cy="75.6164" r="4.38356" fill="#FAC102"/>
<circle cx="61.3699" cy="4.38356" r="4.38356" fill="#FAC102"/>
<circle cx="61.3699" cy="18.6301" r="4.38356" fill="#FAC102"/>
<circle cx="61.3699" cy="32.8767" r="4.38356" fill="#FAC102"/>
<circle cx="61.3699" cy="47.1233" r="4.38356" fill="#FAC102"/>
<circle cx="61.3699" cy="61.3699" r="4.38356" fill="#FAC102"/>
<circle cx="61.3699" cy="75.6164" r="4.38356" fill="#FAC102"/>
<circle cx="75.6165" cy="4.38356" r="4.38356" fill="#FAC102"/>
<circle cx="75.6165" cy="18.6301" r="4.38356" fill="#FAC102"/>
<circle cx="75.6165" cy="32.8767" r="4.38356" fill="#FAC102"/>
<circle cx="75.6165" cy="47.1233" r="4.38356" fill="#FAC102"/>
<circle cx="75.6165" cy="61.3699" r="4.38356" fill="#FAC102"/>
<circle cx="75.6165" cy="75.6164" r="4.38356" fill="#FAC102"/>
<circle cx="89.8631" cy="4.38356" r="4.38356" fill="#FAC102"/>
<circle cx="89.8631" cy="18.6301" r="4.38356" fill="#FAC102"/>
<circle cx="89.8631" cy="32.8767" r="4.38356" fill="#FAC102"/>
<circle cx="89.8631" cy="47.1233" r="4.38356" fill="#FAC102"/>
<circle cx="89.8631" cy="61.3699" r="4.38356" fill="#FAC102"/>
<circle cx="89.8631" cy="75.6164" r="4.38356" fill="#FAC102"/>
</svg>

