<svg width="45" height="45" viewBox="0 0 45 45" fill="none" xmlns="http://www.w3.org/2000/svg">
<path d="M22.5 0C10.125 0 0 10.125 0 22.5C0 34.875 10.125 45 22.5 45C34.875 45 45 34.875 45 22.5C45 10.125 34.875 0 22.5 0ZM14.2473 28.125C13.1199 28.1615 12.0075 27.8581 11.0547 27.2544C10.1019 26.6506 9.35257 25.7743 8.9041 24.7393C8.45564 23.7042 8.32872 22.5583 8.53983 21.4502C8.75095 20.3421 9.29034 19.3231 10.088 18.5255C10.8856 17.7278 11.9046 17.1884 13.0127 16.9773C14.1208 16.7662 15.2667 16.8931 16.3018 17.3416C17.3368 17.7901 18.2131 18.5394 18.8169 19.4922C19.4206 20.445 19.724 21.5574 19.6875 22.6848C19.6413 24.113 19.0533 25.47 18.0429 26.4804C17.0325 27.4908 15.6755 28.0788 14.2473 28.125ZM31.1223 28.125C29.9949 28.1615 28.8825 27.8581 27.9297 27.2544C26.9769 26.6506 26.2276 25.7743 25.7791 24.7393C25.3306 23.7042 25.2037 22.5583 25.4148 21.4502C25.6259 20.3421 26.1653 19.3231 26.963 18.5255C27.7606 17.7278 28.7796 17.1884 29.8877 16.9773C30.9958 16.7662 32.1417 16.8931 33.1768 17.3416C34.2118 17.7901 35.0881 18.5394 35.6919 19.4922C36.2956 20.445 36.599 21.5574 36.5625 22.6848C36.5163 24.113 35.9283 25.47 34.9179 26.4804C33.9075 27.4908 32.5505 28.0788 31.1223 28.125Z" fill="#4F4F4F"/>
</svg>
