<svg width="185" height="200" viewBox="0 0 185 200" fill="none" xmlns="http://www.w3.org/2000/svg">
<path d="M37.9048 167.587C37.9048 171.411 34.8054 174.51 30.9818 174.51C27.1582 174.51 24.0589 171.411 24.0589 167.587C24.0589 163.764 27.1582 160.664 30.9818 160.664C34.8054 160.664 37.9048 163.764 37.9048 167.587Z" fill="#111E30"/>
<path d="M75.5593 12.1197C75.5593 12.1197 76.7663 16.1915 82.1059 13.8267C87.4466 11.4618 91.5746 17.5235 87.3461 20.2248C83.1177 22.9273 79.0669 23.4484 75.2591 17.7151C75.2591 17.7151 55.4349 22.8128 57.0543 18.0773C58.6749 13.343 68.7745 11.3567 75.5593 12.1197Z" fill="#EF9411"/>
<path d="M56.9727 18.3851C56.9727 18.3851 56.5591 9.92244 60.6602 7.12998C64.7612 4.33635 73.9308 5.91951 76.305 6.91382C78.6792 7.90695 78.088 14.7046 78.088 14.7046C78.088 14.7046 63.6092 14.9079 56.9727 18.3851Z" fill="#F9A715"/>
<path d="M95.4497 34.2825L83.0577 23.8452C83.0577 23.8452 86.4052 24.0684 84.6199 19.8271C82.8334 15.5859 75.802 13.2421 76.3593 18.8223C76.3593 18.8223 69.2041 15.0344 64.6228 17.5569C54.8235 22.9502 62.8503 36.7548 69.4354 38.0938C76.0205 39.4339 79.1459 35.3457 79.1459 35.3457L83.5484 44.6555L95.4497 34.2825Z" fill="#643022"/>
<path d="M167.581 129.77L128.264 129.77V109.717L167.581 109.717V129.77Z" fill="#4791D5"/>
<path d="M177.114 109.717L137.798 109.717V89.6648L177.114 89.6648V109.717Z" fill="#F3656F"/>
<path d="M63.4012 24.8023C63.4012 24.8023 66.3358 32.4273 66.9235 32.4004C67.5111 32.3712 70.6431 29.9577 70.6431 29.9577L63.4012 24.8023Z" fill="#844B3C"/>
<path d="M64.8394 35.3104C64.8394 35.3104 71.3263 42.8735 79.3473 35.4997L83.022 23.4968L80.7004 27.5757L75.4181 21.8505L76.5689 18.8267L76.3248 18.4738C76.3248 18.4738 71.3625 30.0912 63.4011 33.4866L64.8394 35.3104Z" fill="white"/>
<path d="M70.478 22.6894C70.478 22.6894 70.5633 20.7244 68.8974 21.3225C67.2304 21.9207 65.3927 22.7758 65.4348 23.673C65.478 24.5714 70.7514 23.7898 70.478 22.6894Z" fill="#111E30"/>
<path d="M60.1455 27.9973C60.1455 27.9973 60.9492 29.7928 61.9317 28.6421C62.9142 27.4914 63.9107 26.0487 63.4832 25.2589C63.0556 24.4704 59.4551 27.1106 60.1455 27.9973Z" fill="#111E30"/>
<path d="M69.4538 24.7142C69.8043 25.1488 69.8873 25.6651 69.6396 25.8649C69.3919 26.0658 68.9059 25.8754 68.5543 25.4408C68.2027 25.0051 68.1197 24.4899 68.3685 24.2901C68.6162 24.0892 69.1022 24.2796 69.4538 24.7142Z" fill="#111E30"/>
<path d="M64.3732 28.209C64.7237 28.6436 64.8078 29.1599 64.559 29.3597C64.3102 29.5606 63.8241 29.3702 63.4725 28.9356C63.122 28.5011 63.0391 27.9847 63.2879 27.7849C63.5356 27.584 64.0227 27.7744 64.3732 28.209Z" fill="#111E30"/>
<path d="M57.7077 168.653C57.7077 183.162 45.9034 194.968 31.3943 194.968C16.8851 194.968 5.08086 183.162 5.08086 168.653C5.08086 154.144 16.8851 142.341 31.3943 142.341C45.9034 142.341 57.7077 154.144 57.7077 168.653ZM62.7388 168.653C62.7388 151.369 48.6783 137.309 31.3943 137.309C14.1102 137.309 0.0485458 151.369 0.0485458 168.653C0.0485458 185.937 14.1102 200 31.3943 200C48.6783 200 62.7388 185.937 62.7388 168.653Z" fill="#111E30"/>
<path d="M173.485 168.653C173.485 183.162 161.68 194.968 147.171 194.968C132.662 194.968 120.858 183.162 120.858 168.653C120.858 154.144 132.662 142.341 147.171 142.341C161.68 142.341 173.485 154.144 173.485 168.653ZM178.516 168.653C178.516 151.369 164.454 137.309 147.171 137.309C129.887 137.309 115.825 151.369 115.825 168.653C115.825 185.937 129.887 200 147.171 200C164.454 200 178.516 185.937 178.516 168.653Z" fill="#111E30"/>
<path d="M30.6851 168.653C30.0378 168.399 29.72 167.67 29.9736 167.023L55.3499 102.337L49.8678 93.3951L52.013 92.0795L58.1494 102.091L32.3162 167.942C32.0615 168.588 31.3312 168.907 30.6851 168.653Z" fill="#F9A715"/>
<path d="M99.0537 127.536L47.9271 127.536V125.02L99.0537 125.02V127.536Z" fill="#F9A715"/>
<path d="M88.5152 168.404L86.1095 167.665L105.089 105.893L107.495 106.631L88.5152 168.404Z" fill="#F9A715"/>
<path d="M147.494 170.801L99.0489 170.801V168.285L143.163 168.285C134.468 163.011 111.675 149.552 95.594 140.101L96.8699 137.933C96.8699 137.933 109.711 145.48 122.542 153.069C129.993 157.476 135.925 161.003 140.176 163.55C148.997 168.834 148.997 168.834 148.715 169.87L147.494 170.801Z" fill="#F9A715"/>
<path d="M100.522 165.89C100.522 173.182 94.6127 179.093 87.3196 179.093C80.0276 179.093 74.1179 173.182 74.1179 165.89C74.1179 158.598 80.0276 152.687 87.3196 152.687C94.6127 152.687 100.522 158.598 100.522 165.89Z" fill="#111E30"/>
<path d="M154.423 169.543C154.423 173.367 151.324 176.466 147.499 176.466C143.676 176.466 140.576 173.367 140.576 169.543C140.576 165.719 143.676 162.62 147.499 162.62C151.324 162.62 154.423 165.719 154.423 169.543Z" fill="#111E30"/>
<path d="M169.629 131.006L99.4915 131.006V129.747L169.629 129.747V131.006Z" fill="#F9A715"/>
<path d="M147.915 169.542H147.076L147.076 129.747H147.915L147.915 169.542Z" fill="#F9A715"/>
<path d="M118.167 152.688H117.327L117.327 129.747H118.167L118.167 152.688Z" fill="#F9A715"/>
<path d="M116.319 101.183L96.8346 105.41C95.5331 105.691 94.6065 106.842 94.6065 108.172C94.6065 109.734 95.8719 110.999 97.4329 110.999L117.556 110.999C119.287 110.999 120.61 109.461 120.353 107.75L119.715 103.524C119.471 101.909 117.915 100.836 116.319 101.183Z" fill="#111E30"/>
<path d="M88.6379 79.6462C88.6379 79.6462 60.3336 91.6561 57.8601 114.977C55.3889 138.3 80.4381 149.645 80.4381 149.645L91.2843 147.622C91.2843 147.622 87.9777 129.395 82.859 116.763C82.859 116.763 95.9286 108.78 110.295 103.435C112.888 102.47 113.934 99.3675 112.47 97.019C109.632 92.4681 97.1999 80.6358 88.6379 79.6462Z" fill="#4791D5"/>
<path d="M108.728 104.033C108.728 104.033 135.456 97.6092 128.855 69.084C123.141 44.3888 104.739 28.5617 84.6603 35.1573C70.8604 39.6895 77.6931 59.8969 77.6931 59.8969C85.2725 64.9502 91.1577 76.0289 83.8365 79.7129C77.6429 82.829 108.166 89.9983 108.728 104.033Z" fill="#307FC2"/>
<path d="M173.19 49.8123L128.783 78.5863L96.8122 29.2485L141.22 0.474472C142.588 -0.411171 144.415 -0.0209351 145.299 1.34608L174.062 45.7322C174.946 47.0993 174.557 48.9254 173.19 49.8123Z" fill="#F9A715"/>
<path d="M183.183 43.5159L175.108 48.7479C173.262 49.9432 170.797 49.4175 169.601 47.5714L150.101 17.4782C148.905 15.6322 149.431 13.1657 151.278 11.9704L159.353 6.73835C161.199 5.54192 163.664 6.0689 164.86 7.91496L184.36 38.0081C185.555 39.853 185.028 42.3194 183.183 43.5159Z" fill="#F9A715"/>
<path d="M167.682 46.2869L130.294 70.5135L104.8 31.169L142.187 6.94236L167.682 46.2869Z" fill="#FABA48"/>
<path d="M106.941 25.3266L81.3486 37.6812L99.8303 66.301L129.004 78.0445L128.568 79.1276L99.0498 67.2462L79.6498 37.2045L106.433 24.275L106.941 25.3266Z" fill="#F9A715"/>
<path d="M142.146 129.77H140.57L140.57 89.665H142.146L142.146 129.77Z" fill="white"/>
<path d="M159.034 129.77H157.459L157.459 89.6648H159.034L159.034 129.77Z" fill="white"/>
<path d="M57.0825 83.9958C57.0825 83.9958 45.2986 86.6173 44.7262 94.2167C44.1537 101.816 52.6 101.988 50.9037 97.5134C49.2098 93.0391 53.5054 94.2167 53.5054 94.2167C53.5054 94.2167 59.593 95.1419 61.5568 90.705C63.5183 86.2669 57.0825 83.9958 57.0825 83.9958Z" fill="white"/>
<path d="M53.4956 94.2156C53.4956 96.0894 51.9757 97.6093 50.1019 97.6093C48.2269 97.6093 46.7082 96.0894 46.7082 94.2156C46.7082 92.3406 48.2269 90.8219 50.1019 90.8219C51.9757 90.8219 53.4956 92.3406 53.4956 94.2156Z" fill="#111E30"/>
<path d="M76.1123 46.0877C77.512 33.2132 94.865 29.8436 100.81 41.3476C102.201 44.0407 103.277 47.3672 103.767 51.4729C106.742 76.4427 61.5611 90.7029 61.5611 90.7029L57.0861 83.9929C57.0861 83.9929 77.7866 69.4393 76.1123 52.4357C75.8821 50.1059 75.9043 47.9957 76.1123 46.0877Z" fill="#4791D5"/>
<path d="M167.581 109.76H162.81V109.717H167.581V109.76Z" fill="#66A9E1"/>
<path d="M167.581 109.717H162.81V98.7332H167.581V109.717Z" fill="#F57E88"/>
<path d="M149.462 129.748H144.689V109.761H149.462V129.748Z" fill="#66A9E1"/>
<path d="M144.69 130.106H147.076V129.747H147.915V130.106H149.462V129.747H144.69V130.106Z" fill="#FAB829"/>
<path d="M147.915 130.106H147.074V129.747H147.915V130.106Z" fill="#FAB829"/>
<path d="M167.581 95.1792H162.81V89.6653H167.581V95.1792Z" fill="#F57E88"/>
<path d="M134.677 129.748H129.906V119.935H134.677V129.748Z" fill="#66A9E1"/>
<path d="M134.677 130.106H129.906V129.747H134.677V130.106Z" fill="#FAB829"/>
<path d="M91.2844 147.622L93.0356 153.245L83.9118 155.203L80.809 149.645L91.2844 147.622Z" fill="white"/>
<path d="M93.3578 152.853C93.3578 152.853 96.2028 156.351 94.7108 160.537L68.2069 165.126C68.2069 165.126 67.9359 159.537 75.7291 157.363C83.5234 155.19 86.0004 154.128 86.0004 154.128L93.3578 152.853Z" fill="#F9A715"/>
<path d="M94.6714 158.35L67.8591 162.992C67.2725 163.093 66.8764 163.655 66.9781 164.242C67.0797 164.827 67.6417 165.223 68.2271 165.122L95.0418 160.479C95.6271 160.377 96.0232 159.815 95.9216 159.23C95.8199 158.644 95.2567 158.248 94.6714 158.35Z" fill="#F9A715"/>
<path d="M75.575 167.07L63.6007 169.214C62.7222 169.371 61.8729 168.78 61.7163 167.902C61.5586 167.022 62.1486 166.174 63.0283 166.017L75.0026 163.874C75.8811 163.716 76.7292 164.306 76.8869 165.186C77.0435 166.064 76.4535 166.912 75.575 167.07Z" fill="#4791D5"/>
<path d="M78.6325 18.4737C78.6325 18.4737 78.15 16.6186 79.8171 16.7938C81.4853 16.9702 82.4958 18.1992 83.0227 19.6034C83.5484 21.0076 82.9327 21.5871 81.9678 21.2097C81.0017 20.8324 82.3556 18.4737 80.4946 18.4737C78.6324 18.4737 78.6325 18.4737 78.6325 18.4737Z" fill="#461D16"/>
<path d="M87.8581 36.6351C87.8698 36.6737 90.9473 43.8254 90.9531 51.5777C90.952 55.4521 90.1785 59.5006 87.7973 62.8539C84.284 67.7857 77.1416 73.8017 70.8533 78.6354C64.5673 83.462 59.1471 87.0747 59.1401 87.0793L58.4916 86.1072C58.4928 86.1061 58.827 85.8841 59.4299 85.4716C61.5423 84.0298 66.9227 80.2863 72.517 75.8569C78.1078 71.4334 83.9194 66.2995 86.8451 62.1762C89.0347 59.0987 89.7847 55.3025 89.7847 51.5777C89.7859 47.8552 89.0358 44.2227 88.2822 41.5284C87.906 40.1812 87.5297 39.0689 87.2481 38.2954C87.1079 37.9087 86.9911 37.6061 86.9093 37.4016C86.8275 37.1971 86.7843 37.0955 86.7843 37.0955L87.8581 36.6351Z" fill="#307FC2"/>
<path d="M96.2622 89.5907C96.261 89.5907 95.9117 89.7929 95.2889 90.1703C93.1087 91.4917 87.6243 94.9396 82.5686 99.1038C80.0402 101.186 77.6205 103.447 75.7803 105.694C73.9365 107.938 72.691 110.172 72.4422 112.129C72.3931 112.503 72.3685 112.91 72.3685 113.347C72.365 115.889 73.1981 119.401 74.4682 123.188C76.3703 128.874 79.2363 135.205 81.6257 140.105C82.8198 142.555 83.8959 144.649 84.6718 146.129C85.0597 146.869 85.3728 147.457 85.5889 147.857C85.8051 148.259 85.9231 148.473 85.9231 148.474L84.8996 149.037C84.8961 149.029 81.4832 142.831 78.0656 135.287C76.3575 131.514 74.6469 127.406 73.3605 123.558C72.0741 119.707 71.2036 116.13 71.2001 113.347C71.2001 112.868 71.227 112.411 71.2831 111.978C71.6371 109.33 73.3769 106.612 75.73 103.955C82.7976 96.0099 95.6535 88.5976 95.6769 88.5789L96.2622 89.5907Z" fill="#307FC2"/>
<path d="M60.2493 105.893C60.2493 105.893 67.6406 107.546 66.9209 114.645C66.2011 121.746 59.2585 127.536 59.2585 127.536C59.2585 127.536 55.5442 119.236 60.2493 105.893Z" fill="#307FC2"/>
<path d="M37.9843 152.494L36.6372 151.984C35.3216 151.485 34.6533 150 35.1522 148.684L48.723 112.903C49.2219 111.588 50.7058 110.919 52.0214 111.419L53.3697 111.93C54.6842 112.429 55.3525 113.913 54.8536 115.228L41.2827 151.009C40.7838 152.325 39.2999 152.993 37.9843 152.494Z" fill="#307FC2"/>
<path d="M94.9783 145.583L94.587 145.478C93.2281 145.115 92.4137 143.704 92.7771 142.346L98.8118 119.819C99.1775 118.46 100.587 117.646 101.946 118.01L102.338 118.115C103.697 118.479 104.51 119.889 104.147 121.248L98.112 143.774C97.7475 145.135 96.3372 145.948 94.9783 145.583Z" fill="#307FC2"/>
<path d="M105.505 144.163L105.715 143.818C106.45 142.618 108.033 142.237 109.233 142.971L129.125 155.145C130.324 155.88 130.705 157.463 129.971 158.663L129.758 159.009C129.025 160.209 127.442 160.59 126.242 159.855L106.35 147.68C105.151 146.945 104.77 145.363 105.505 144.163Z" fill="#F9A715"/>
</svg>
