<svg width="318" height="167" viewBox="0 0 318 167" fill="none" xmlns="http://www.w3.org/2000/svg">
<path d="M7.1726 125.057C8.55853 125.057 9.69312 123.922 9.69312 122.537L9.69312 117.777C9.69312 116.391 8.55853 115.256 7.1726 115.256C5.7874 115.256 4.65283 116.391 4.65283 117.777L4.65283 122.537C4.65283 123.922 5.7874 125.057 7.1726 125.057Z" fill="#F9A715"/>
<path d="M11.9959 148.372L266.46 148.372C268.315 148.372 269.833 146.853 269.833 144.998C269.833 143.143 268.315 141.624 266.46 141.624L11.9959 141.624C10.1399 141.624 8.62176 143.143 8.62176 144.998C8.62176 146.853 10.1399 148.372 11.9959 148.372Z" fill="#111E30"/>
<path d="M7.39099 116.524L267.202 110.959V146.029L7.39099 146.029V116.524Z" fill="#111E30"/>
<path d="M115.841 36.1139L267.202 36.1139C270.37 36.1139 272.938 38.6821 272.938 41.8505L272.938 140.292C272.938 143.461 270.37 146.029 267.202 146.029H260.647C258.02 146.029 255.754 144.236 255.089 141.694C251.908 129.542 241.48 120.629 229.099 120.629C216.719 120.629 206.291 129.542 203.109 141.694C202.443 144.236 200.178 146.029 197.551 146.029L115.841 146.029C112.674 146.029 110.106 143.461 110.106 140.292L110.106 41.8505C110.106 38.6821 112.674 36.1139 115.841 36.1139Z" fill="#F9A715"/>
<path d="M107.199 48.8666L68.498 48.8666C66.1588 48.8666 63.9965 50.1073 62.8171 52.1274L41.6353 88.4012C41.1883 89.1668 40.591 89.8341 39.8796 90.3635L10.045 112.541C8.37599 113.782 7.39089 115.74 7.39089 117.82L7.39089 135.308H19.5703C19.5703 135.308 26.7 119.861 46.3044 119.861C65.9096 119.861 73.3361 138.334 74.5242 146.029H107.199L107.199 48.8666Z" fill="#FEFFFE"/>
<path d="M70.2107 55.7313L97.1131 55.7313C98.2116 55.7313 99.1028 56.6218 99.1028 57.721L99.1028 89.0816C99.1028 90.1808 98.2116 91.0713 97.1131 91.0713L53.0697 91.0713C51.5588 91.0713 50.5983 89.4535 51.3234 88.1268L68.4651 56.7662C68.8132 56.1278 69.4834 55.7313 70.2107 55.7313Z" fill="#DFEAF8"/>
<path d="M118.48 110.959L265.962 110.959V44.8462L118.48 44.8462L118.48 110.959Z" fill="#FABA48"/>
<path d="M7.39089 116.524L107.199 116.524L107.199 146.029H74.5242C74.5242 146.029 69.4412 119.861 46.3044 119.861C46.3044 119.861 28.2253 118.931 19.5703 135.308H7.39089L7.39089 116.524Z" fill="#E9EBEB"/>
<path d="M24.079 144.566C24.079 156.235 33.5379 165.694 45.2074 165.694C56.8754 165.694 66.3342 156.235 66.3342 144.566C66.3342 132.897 56.8754 123.438 45.2074 123.438C33.5379 123.438 24.079 132.897 24.079 144.566Z" fill="#111E30"/>
<path d="M207.255 144.566C207.255 156.235 216.715 165.694 228.384 165.694C240.052 165.694 249.512 156.235 249.512 144.566C249.512 132.897 240.052 123.438 228.384 123.438C216.715 123.438 207.255 132.897 207.255 144.566Z" fill="#111E30"/>
<path d="M216.092 144.566C216.092 151.355 221.596 156.858 228.384 156.858C235.173 156.858 240.676 151.355 240.676 144.566C240.676 137.778 235.173 132.275 228.384 132.275C221.596 132.275 216.092 137.778 216.092 144.566Z" fill="#D0D3D6"/>
<path d="M32.9151 144.566C32.9151 151.354 38.4177 156.858 45.2072 156.858C51.9953 156.858 57.4985 151.354 57.4985 144.566C57.4985 137.778 51.9953 132.274 45.2072 132.274C38.4177 132.274 32.9151 137.778 32.9151 144.566Z" fill="#D0D3D6"/>
<path d="M3.48191 148.372H13.7619C15.6772 148.372 17.2437 146.806 17.2437 144.89L17.2437 133.947C17.2437 132.032 15.6772 130.466 13.7619 130.466H3.48191C1.56732 130.466 0.000121774 132.032 0.000121774 133.947L0.000121774 144.89C0.000121774 146.806 1.56732 148.372 3.48191 148.372Z" fill="#111E30"/>
<path d="M264.693 148.372H274.973C276.888 148.372 278.455 146.806 278.455 144.891V133.947C278.455 132.032 276.888 130.466 274.973 130.466H264.693C262.778 130.466 261.211 132.032 261.211 133.947V144.891C261.211 146.806 262.778 148.372 264.693 148.372Z" fill="#111E30"/>
<path d="M53.2137 99.7704C55.4591 99.7704 57.2957 97.9331 57.2957 95.6877L57.2957 84.024C57.2957 81.7786 55.4591 79.9413 53.2137 79.9413C50.9676 79.9413 49.1303 81.7786 49.1303 84.024L49.1303 95.6877C49.1303 97.9331 50.9676 99.7704 53.2137 99.7704Z" fill="#E9EBEB"/>
<path d="M77.5487 61.4318C77.5487 61.4318 76.5665 63.298 74.1955 61.6304C71.8245 59.9613 69.2281 62.5129 71.0257 64.2376C72.8226 65.9629 74.7444 66.6086 77.1537 64.1856C77.1537 64.1856 86.3121 68.586 85.982 66.124C85.652 63.662 80.9265 61.7178 77.5487 61.4318Z" fill="#307FC2"/>
<path d="M83.2946 83.2338L82.6591 74.9572C82.6591 74.9572 83.78 76.2601 84.6892 74.0855C85.597 71.9095 83.9294 68.497 82.09 70.7055C82.09 70.7055 80.9041 66.7298 78.3373 65.9613C72.8478 64.3161 70.6848 72.207 72.5596 75.0944C74.4345 77.9826 77.0504 77.6568 77.0504 77.6568L75.2297 82.6083L83.2946 83.2338Z" fill="#F5748C"/>
<path d="M75.6063 67.9829C75.6063 67.9829 73.8737 71.7954 74.0947 71.9998C74.3157 72.2042 76.3235 72.4822 76.3235 72.4822L75.6063 67.9829Z" fill="#F04059"/>
<path d="M82.5944 71.3781C82.6334 71.1838 82.7721 71.0257 82.9483 70.9361C83.2545 70.7808 83.8106 70.6581 84.2685 71.4287C84.9402 72.556 84.3039 73.6004 83.8908 73.8994C83.4777 74.1976 82.7627 73.4263 83.0682 72.8875C83.3751 72.3495 83.3585 71.8093 82.8515 71.7291C82.5973 71.6887 82.5641 71.5291 82.5944 71.3781Z" fill="#F35F7C"/>
<path d="M78.7391 69.3162C78.7391 69.3162 79.4887 68.6417 78.6719 68.2474C77.8544 67.8531 76.8816 67.4883 76.5681 67.8263C76.2561 68.1636 78.435 69.8117 78.7391 69.3162Z" fill="#111E30"/>
<path d="M73.0841 67.4399C73.0841 67.4399 72.7165 68.3788 73.49 68.3253C74.2635 68.2719 75.1496 68.118 75.284 67.6782C75.419 67.2369 73.1606 66.8693 73.0841 67.4399Z" fill="#111E30"/>
<path d="M74.6987 65.4162C74.6987 65.4162 74.1571 65.1829 73.8833 65.8857C73.6089 66.5884 75.0945 67.4261 75.998 66.7393C75.998 66.7393 77.0358 67.8638 77.9978 67.1149C77.9978 67.1149 78.8919 68.7225 79.8401 67.9533C79.8401 67.9533 79.8235 69.6238 81.1199 69.8658C81.1199 69.8658 80.8195 71.1795 81.9403 71.4922L82.0898 70.7057C82.0898 70.7057 83.1103 69.6867 83.6982 70.1236C84.2868 70.5613 84.6458 71.1961 84.6458 71.1961C84.6458 71.1961 85.2206 69.5935 84.6624 68.7666C84.1048 67.9396 82.8922 67.9324 82.6597 68.3527C82.6597 68.3527 80.2345 65.5289 78.8189 65.0342C77.4041 64.5409 75.6015 63.6829 74.6987 65.4162Z" fill="#111E30"/>
<path d="M75.2385 66.5298C74.7661 66.9927 74.0078 66.9862 73.5441 66.5139C73.0805 66.0423 73.0877 65.284 73.5593 64.821C74.0316 64.3574 74.7899 64.3639 75.2529 64.8355C75.7165 65.3071 75.7101 66.0654 75.2385 66.5298Z" fill="#111E30"/>
<path d="M75.84 66.8115C75.3677 67.2752 74.6093 67.268 74.1464 66.7964C73.6827 66.3248 73.6892 65.5664 74.1608 65.1028C74.6332 64.6398 75.3915 64.6456 75.8544 65.1179C76.3188 65.5895 76.3116 66.3479 75.84 66.8115Z" fill="#111E30"/>
<path d="M79.8788 67.871C79.5083 68.235 78.9125 68.2299 78.5478 67.8594C78.183 67.4882 78.1888 66.8924 78.5593 66.5277C78.9305 66.163 79.5263 66.1687 79.891 66.5392C80.255 66.9105 80.25 67.5063 79.8788 67.871Z" fill="#111E30"/>
<path d="M77.55 66.8441C77.1788 67.2088 76.583 67.2031 76.2183 66.8326C75.8543 66.4613 75.8593 65.8655 76.2306 65.5008C76.601 65.1368 77.1968 65.1419 77.5616 65.5131C77.9263 65.8836 77.9205 66.4794 77.55 66.8441Z" fill="#111E30"/>
<path d="M71.8123 72.5538C71.8123 72.5538 71.3775 77.6404 76.953 77.9242L82.6592 74.9573L80.3344 75.5734L80.5308 71.5868L82.0489 70.9223L82.0901 70.7057C82.0901 70.7057 76.0625 73.0637 71.9618 71.373L71.8123 72.5538Z" fill="white"/>
<path d="M77.6284 69.6663C77.5952 69.9516 77.437 70.1668 77.2745 70.1473C77.112 70.1293 77.0073 69.883 77.0398 69.5992C77.073 69.3139 77.2312 69.0987 77.3937 69.1175C77.5569 69.1362 77.6616 69.3825 77.6284 69.6663Z" fill="#111E30"/>
<path d="M74.5268 69.0639C74.4936 69.3485 74.3354 69.5637 74.1729 69.5456C74.0097 69.5261 73.9049 69.2799 73.9382 68.996C73.9714 68.7108 74.1289 68.4955 74.2921 68.5143C74.4546 68.5331 74.5593 68.7794 74.5268 69.0639Z" fill="#111E30"/>
<path d="M75.0002 64.7606C75.0002 64.7606 74.6621 62.0429 77.2318 62.1794C79.8014 62.3173 79.7552 64.3814 79.7552 64.3814C79.7552 64.3814 82.0879 62.7867 84.1917 64.3814C86.2948 65.9753 84.6626 68.7667 84.6626 68.7667L82.6592 69.0303L79.8469 65.9573L75.0002 64.7606Z" fill="#111E30"/>
<path d="M85.3029 91.0715H96.7869V77.054C96.7869 73.8958 94.2028 71.3125 91.0445 71.3125C87.887 71.3125 85.3029 73.8958 85.3029 77.054V85.0735V91.0715Z" fill="#111E30"/>
<path d="M74.6251 81.6016C75.3754 80.077 76.9946 79.0804 78.6781 79.3144C78.8218 79.3339 78.9648 79.3621 79.1071 79.3974C81.6479 80.0279 85.303 81.3279 85.303 83.5805C85.303 87.0334 85.303 91.0713 85.303 91.0713H69.9653L74.6251 81.6016Z" fill="#307FC2"/>
<path d="M76.2126 91.0713C76.2126 91.0713 83.1451 83.7379 80.7958 81.099C78.4457 78.4586 76.7081 78.6276 74.0121 82.3823C71.3168 86.1379 63.8159 91.0713 63.8159 91.0713H76.2126Z" fill="#4791D5"/>
<path d="M78.5908 80.894C78.5814 80.9099 75.9215 88.1349 69.3544 91.2346L69.2006 90.9082C72.4022 89.4009 74.6685 86.8667 76.1324 84.7051C76.864 83.6247 77.3948 82.6381 77.7429 81.9231C77.9163 81.5656 78.0441 81.276 78.1286 81.076C78.2124 80.8759 78.2521 80.769 78.2521 80.769L78.5908 80.894Z" fill="#307FC2"/>
<path d="M86.1162 66.3716C86.1162 66.3716 87.1367 62.2911 85.4106 60.534C83.6845 58.7761 79.0653 58.6599 77.8137 58.9141C76.5621 59.1683 76.1294 62.3193 76.1294 62.3193C76.1294 62.3193 83.2209 64.036 86.1162 66.3716Z" fill="#4791D5"/>
<path d="M82.0789 59.2196C82.0789 59.2196 82.037 59.2419 81.9583 59.2889C81.3993 59.6153 79.1272 61.106 78.6722 63.1534L78.3205 63.0733C78.6144 61.7856 79.5165 60.7499 80.3347 60.0306C81.1544 59.3106 81.899 58.9061 81.907 58.9018L82.0789 59.2196Z" fill="#307FC2"/>
<path d="M82.3446 58.974C82.3569 58.9891 84.1942 60.7405 84.1985 63.4531C84.1985 63.9543 84.1349 64.4873 83.9847 65.0463L83.6359 64.9524C83.7782 64.4245 83.8374 63.924 83.8374 63.4531C83.8381 62.182 83.4019 61.1254 82.9635 60.3859C82.7447 60.0161 82.5251 59.7265 82.3619 59.5301C82.2796 59.4318 82.2124 59.3567 82.1655 59.3069L82.0947 59.2347L82.3439 58.974" fill="#307FC2"/>
<path d="M76.7513 60.1679C76.7513 60.1679 77.7364 60.4907 77.4627 61.1595C77.1883 61.8275 76.3346 61.6492 76.3346 61.6492C76.3346 61.6492 76.5462 60.6157 76.7513 60.1679Z" fill="white"/>
<path d="M69.3019 150.044C68.4699 147.093 65.4027 145.376 62.4525 146.208C59.5015 147.04 57.7841 150.107 58.6161 153.058C59.448 156.009 62.5153 157.726 65.4662 156.894C68.4172 156.062 70.1346 152.995 69.3019 150.044Z" fill="white"/>
<path d="M82.9174 147.978C82.0854 145.027 79.0182 143.31 76.0672 144.142C73.1162 144.974 71.3988 148.042 72.2315 150.993C73.0642 153.944 76.1307 155.661 79.0817 154.828C82.0326 153.996 83.7501 150.929 82.9174 147.978Z" fill="white"/>
<path d="M78.0308 153.351C77.0608 149.913 73.4888 147.912 70.051 148.882C66.614 149.851 64.6135 153.424 65.5827 156.861C66.5527 160.298 70.1254 162.299 73.5624 161.329C76.9995 160.36 79.0007 156.787 78.0308 153.351Z" fill="white"/>
<path d="M75.937 143.228C75.2234 140.699 72.5946 139.227 70.0661 139.941C67.5362 140.653 66.0636 143.282 66.7779 145.812C67.4907 148.341 70.1195 149.813 72.6495 149.1C75.1786 148.387 76.6505 145.758 75.937 143.228Z" fill="white"/>
<path d="M70.3135 145.765C69.5999 143.236 66.9711 141.764 64.4419 142.477C61.9127 143.191 60.4401 145.819 61.1544 148.349C61.8672 150.878 64.4968 152.35 67.026 151.637C69.5544 150.923 71.027 148.295 70.3135 145.765Z" fill="white"/>
<path d="M99.4673 140.928C98.2468 136.599 93.7474 134.08 89.4185 135.301C85.0896 136.522 82.5705 141.021 83.791 145.35C85.013 149.679 89.5117 152.199 93.8399 150.976C98.1695 149.756 100.689 145.258 99.4673 140.928Z" fill="white"/>
<path d="M119.442 137.898C118.221 133.569 113.722 131.05 109.393 132.271C105.063 133.491 102.544 137.992 103.766 142.32C104.987 146.648 109.486 149.168 113.815 147.947C118.143 146.726 120.663 142.226 119.442 137.898Z" fill="white"/>
<path d="M112.273 145.778C110.85 140.736 105.61 137.801 100.567 139.223C95.5249 140.646 92.5906 145.886 94.0126 150.928C95.4347 155.971 100.676 158.906 105.718 157.483C110.76 156.061 113.695 150.821 112.273 145.778Z" fill="white"/>
<path d="M109.201 130.93C108.154 127.22 104.298 125.061 100.587 126.108C96.8771 127.154 94.717 131.01 95.7642 134.72C96.8107 138.431 100.667 140.591 104.377 139.543C108.088 138.497 110.247 134.64 109.201 130.93Z" fill="white"/>
<path d="M100.952 134.652C99.9052 130.941 96.0486 128.781 92.3386 129.828C88.6286 130.875 86.4684 134.731 87.5156 138.442C88.5621 142.153 92.418 144.311 96.128 143.266C99.8388 142.218 101.998 138.362 100.952 134.652Z" fill="white"/>
<path d="M261.272 154.206C260.348 150.932 256.945 149.026 253.67 149.95C250.396 150.874 248.491 154.277 249.414 157.551C250.337 160.825 253.74 162.731 257.015 161.808C260.289 160.884 262.195 157.481 261.272 154.206Z" fill="white"/>
<path d="M276.38 151.914C275.457 148.64 272.053 146.734 268.779 147.658C265.504 148.582 263.599 151.985 264.522 155.259C265.446 158.533 268.849 160.439 272.124 159.515C275.398 158.592 277.303 155.189 276.38 151.914Z" fill="white"/>
<path d="M270.957 157.874C269.881 154.061 265.918 151.841 262.104 152.917C258.29 153.993 256.069 157.956 257.146 161.771C258.221 165.585 262.185 167.804 265.999 166.729C269.813 165.653 272.033 161.688 270.957 157.874Z" fill="white"/>
<path d="M268.633 146.643C267.842 143.838 264.925 142.204 262.118 142.996C259.312 143.787 257.678 146.704 258.47 149.511C259.262 152.317 262.179 153.951 264.985 153.159C267.792 152.367 269.425 149.451 268.633 146.643Z" fill="white"/>
<path d="M262.394 149.459C261.602 146.652 258.685 145.018 255.879 145.811C253.072 146.602 251.439 149.519 252.23 152.326C253.022 155.132 255.939 156.766 258.745 155.974C261.552 155.183 263.185 152.266 262.394 149.459Z" fill="white"/>
<path d="M294.744 144.092C293.389 139.288 288.397 136.493 283.594 137.848C278.79 139.203 275.994 144.195 277.349 148.998C278.704 153.802 283.697 156.597 288.5 155.242C293.303 153.887 296.099 148.895 294.744 144.092Z" fill="white"/>
<path d="M316.907 140.729C315.552 135.926 310.56 133.13 305.757 134.485C300.953 135.84 298.158 140.832 299.512 145.636C300.867 150.438 305.859 153.234 310.663 151.879C315.466 150.524 318.262 145.532 316.907 140.729Z" fill="white"/>
<path d="M308.952 149.473C307.374 143.878 301.559 140.622 295.964 142.2C290.369 143.778 287.113 149.593 288.691 155.188C290.269 160.784 296.084 164.039 301.679 162.461C307.274 160.883 310.53 155.068 308.952 149.473Z" fill="white"/>
<path d="M305.543 132.998C304.382 128.881 300.103 126.484 295.986 127.646C291.868 128.807 289.472 133.086 290.634 137.204C291.795 141.32 296.074 143.717 300.191 142.555C304.308 141.394 306.705 137.115 305.543 132.998Z" fill="white"/>
<path d="M296.39 137.127C295.229 133.01 290.95 130.614 286.833 131.776C282.716 132.936 280.319 137.215 281.481 141.333C282.642 145.449 286.921 147.846 291.038 146.684C295.155 145.524 297.551 141.244 296.39 137.127Z" fill="white"/>
<path d="M166.767 19.6827L133.961 19.6827C133.961 19.6827 132.868 8.68417 140.766 6.34709C148.663 4.00929 150.338 8.6264 150.338 8.6264C150.338 8.6264 152.066 -0.849036 163.122 0.0616752C174.178 0.971662 174.178 11.178 174.178 11.178C174.178 11.178 183.655 9.84187 184.87 19.6827L166.767 19.6827Z" fill="white"/>
<path d="M299.636 91.9618L279.602 91.9618C279.602 91.9618 278.935 85.2445 283.758 83.8174C288.58 82.3903 289.604 85.2091 289.604 85.2091C289.604 85.2091 290.658 79.4227 297.41 79.9788C304.162 80.5349 304.162 86.7676 304.162 86.7676C304.162 86.7676 309.95 85.9508 310.691 91.9618H299.636Z" fill="white"/>
<path d="M29.5145 77.4851L5.34131 77.4851C5.34131 77.4851 4.53606 69.3804 10.3556 67.658C16.1745 65.9355 17.4087 69.3378 17.4087 69.3378C17.4087 69.3378 18.6813 62.3555 26.8278 63.0264C34.9758 63.6973 34.9759 71.2177 34.9759 71.2177C34.9759 71.2177 41.9589 70.2334 42.8538 77.4851H29.5145Z" fill="white"/>
</svg>
