<svg width="15" height="25" viewBox="0 0 15 25" fill="none" xmlns="http://www.w3.org/2000/svg">
<path d="M11.9318 0H2.84091C2.08745 0 1.36486 0.299309 0.832083 0.832083C0.299309 1.36486 0 2.08745 0 2.84091V22.1591C0 22.9125 0.299309 23.6351 0.832083 24.1679C1.36486 24.7007 2.08745 25 2.84091 25H11.9318C12.6853 25 13.4079 24.7007 13.9406 24.1679C14.4734 23.6351 14.7727 22.9125 14.7727 22.1591V2.84091C14.7727 2.08745 14.4734 1.36486 13.9406 0.832083C13.4079 0.299309 12.6853 0 11.9318 0ZM7.38636 23.8636C6.44318 23.8636 5.68182 23.1023 5.68182 22.1591C5.68182 21.2159 6.44318 20.4545 7.38636 20.4545C8.32955 20.4545 9.09091 21.2159 9.09091 22.1591C9.09091 23.1023 8.32955 23.8636 7.38636 23.8636ZM12.5 19.3182H2.27273V3.40909H12.5V19.3182Z" fill="white"/>
</svg>
