<svg width="41" height="224" viewBox="0 0 41 224" fill="none" xmlns="http://www.w3.org/2000/svg">
<path d="M12.272 15.624C11.504 16.68 10.4267 17.208 9.04 17.208C7.664 17.208 6.58133 16.68 5.792 15.624C5.024 14.568 4.64 13.16 4.64 11.4C4.64 9.64 5.024 8.232 5.792 7.176C6.58133 6.12 7.664 5.592 9.04 5.592C10.4267 5.592 11.504 6.12 12.272 7.176C13.0507 8.22133 13.44 9.62933 13.44 11.4C13.44 13.1707 13.0507 14.5787 12.272 15.624ZM9.04 15.416C9.872 15.416 10.5067 15.0693 10.944 14.376C11.3813 13.6827 11.6 12.6907 11.6 11.4C11.6 10.1093 11.3813 9.11733 10.944 8.424C10.5067 7.73067 9.872 7.384 9.04 7.384C8.21867 7.384 7.584 7.73067 7.136 8.424C6.69867 9.11733 6.48 10.1093 6.48 11.4C6.48 12.6907 6.69867 13.6827 7.136 14.376C7.584 15.0693 8.21867 15.416 9.04 15.416ZM13.9736 6.84L16.9176 5.8H18.5176V17H16.6776V7.768L14.4216 8.408L13.9736 6.84Z" fill="#FB1242"/>
<rect x="36" width="5" height="58" rx="2.5" fill="#FB1242"/>
<path d="M8.272 98.624C7.504 99.68 6.42667 100.208 5.04 100.208C3.664 100.208 2.58133 99.68 1.792 98.624C1.024 97.568 0.64 96.16 0.64 94.4C0.64 92.64 1.024 91.232 1.792 90.176C2.58133 89.12 3.664 88.592 5.04 88.592C6.42667 88.592 7.504 89.12 8.272 90.176C9.05067 91.2213 9.44 92.6293 9.44 94.4C9.44 96.1707 9.05067 97.5787 8.272 98.624ZM5.04 98.416C5.872 98.416 6.50667 98.0693 6.944 97.376C7.38133 96.6827 7.6 95.6907 7.6 94.4C7.6 93.1093 7.38133 92.1173 6.944 91.424C6.50667 90.7307 5.872 90.384 5.04 90.384C4.21867 90.384 3.584 90.7307 3.136 91.424C2.69867 92.1173 2.48 93.1093 2.48 94.4C2.48 95.6907 2.69867 96.6827 3.136 97.376C3.584 98.0693 4.21867 98.416 5.04 98.416ZM17.7158 100H10.3398V98.56L14.2438 94.576C15.1931 93.6267 15.6678 92.8053 15.6678 92.112C15.6678 91.5787 15.5078 91.1573 15.1878 90.848C14.8678 90.5387 14.4518 90.384 13.9398 90.384C13.0011 90.384 12.3078 90.848 11.8598 91.776L10.3078 90.864C10.6491 90.128 11.1398 89.568 11.7798 89.184C12.4198 88.7893 13.1344 88.592 13.9238 88.592C14.9158 88.592 15.7584 88.9013 16.4518 89.52C17.1558 90.1493 17.5078 90.992 17.5078 92.048C17.5078 93.1787 16.8731 94.3947 15.6038 95.696L13.0758 98.224H17.7158V100Z" fill="white"/>
<rect x="36" y="83" width="5" height="58" rx="2.5" fill="white"/>
<path d="M8.272 181.624C7.504 182.68 6.42667 183.208 5.04 183.208C3.664 183.208 2.58133 182.68 1.792 181.624C1.024 180.568 0.64 179.16 0.64 177.4C0.64 175.64 1.024 174.232 1.792 173.176C2.58133 172.12 3.664 171.592 5.04 171.592C6.42667 171.592 7.504 172.12 8.272 173.176C9.05067 174.221 9.44 175.629 9.44 177.4C9.44 179.171 9.05067 180.579 8.272 181.624ZM5.04 181.416C5.872 181.416 6.50667 181.069 6.944 180.376C7.38133 179.683 7.6 178.691 7.6 177.4C7.6 176.109 7.38133 175.117 6.944 174.424C6.50667 173.731 5.872 173.384 5.04 173.384C4.21867 173.384 3.584 173.731 3.136 174.424C2.69867 175.117 2.48 176.109 2.48 177.4C2.48 178.691 2.69867 179.683 3.136 180.376C3.584 181.069 4.21867 181.416 5.04 181.416ZM17.2879 173.368L15.0159 176.376C15.8479 176.568 16.5092 176.952 16.9999 177.528C17.5012 178.093 17.7519 178.787 17.7519 179.608C17.7519 180.728 17.3732 181.608 16.6159 182.248C15.8692 182.888 14.9412 183.208 13.8319 183.208C12.9572 183.208 12.1839 183.011 11.5119 182.616C10.8399 182.211 10.3599 181.635 10.0719 180.888L11.6399 179.976C11.9705 180.936 12.7012 181.416 13.8319 181.416C14.4719 181.416 14.9785 181.256 15.3519 180.936C15.7252 180.605 15.9119 180.163 15.9119 179.608C15.9119 179.053 15.7252 178.616 15.3519 178.296C14.9785 177.976 14.4719 177.816 13.8319 177.816H13.4159L12.6799 176.712L15.0959 173.528H10.4079V171.8H17.2879V173.368Z" fill="white"/>
<rect x="36" y="166" width="5" height="58" rx="2.5" fill="white"/>
</svg>
