<svg width="20" height="21" viewBox="0 0 20 21" fill="none" xmlns="http://www.w3.org/2000/svg">
<path d="M0 1.28872V19.7103C0.000123415 19.7503 0.0120438 19.7894 0.0342666 19.8226C0.0564893 19.8558 0.0880249 19.8817 0.124919 19.8971C0.161813 19.9125 0.202424 19.9166 0.241658 19.909C0.280892 19.9013 0.317004 19.8823 0.345464 19.8543L9.93737 10.5L0.345464 1.14481C0.317004 1.11675 0.280892 1.09772 0.241658 1.0901C0.202424 1.08248 0.161813 1.08662 0.124919 1.10199C0.0880249 1.11735 0.0564893 1.14327 0.0342666 1.17649C0.0120438 1.20971 0.000123415 1.24875 0 1.28872Z" fill="white"/>
<path d="M13.9592 6.6563L1.93215 0.0301394L1.92465 0.0259207C1.71747 -0.0865778 1.5206 0.193731 1.69028 0.356854L11.1181 9.37173L13.9592 6.6563Z" fill="white"/>
<path d="M1.69132 20.6431C1.5207 20.8063 1.71757 21.0866 1.92569 20.9741L1.93319 20.9699L13.9593 14.3437L11.1182 11.6273L1.69132 20.6431Z" fill="white"/>
<path d="M18.8145 9.32814L15.4559 7.47847L12.298 10.5L15.4559 13.5201L18.8145 11.6719C19.728 11.167 19.728 9.83297 18.8145 9.32814Z" fill="white"/>
</svg>
