<svg width="18" height="21" viewBox="0 0 18 21" fill="none" xmlns="http://www.w3.org/2000/svg">
<path d="M8.62764 10.1158C10.0174 10.1158 11.2208 9.61736 12.204 8.63395C13.1873 7.65069 13.6857 6.44762 13.6857 5.05774C13.6857 3.66833 13.1873 2.4651 12.2038 1.48153C11.2204 0.498436 10.0172 0 8.62764 0C7.23775 0 6.03468 0.498436 5.05143 1.48169C4.06818 2.46494 3.56958 3.66817 3.56958 5.05774C3.56958 6.44762 4.06818 7.65085 5.05159 8.63411C6.035 9.6172 7.23823 10.1158 8.62764 10.1158Z" fill="#FB1242"/>
<path d="M17.478 16.1478C17.4496 15.7386 17.3922 15.2923 17.3078 14.8209C17.2226 14.346 17.1128 13.8971 16.9814 13.4868C16.8457 13.0627 16.6612 12.6439 16.433 12.2425C16.1962 11.826 15.9181 11.4632 15.606 11.1647C15.2796 10.8525 14.88 10.6014 14.418 10.4183C13.9575 10.2361 13.4472 10.1438 12.9013 10.1438C12.687 10.1438 12.4797 10.2318 12.0793 10.4925C11.8329 10.6532 11.5446 10.839 11.2229 11.0446C10.9478 11.2199 10.5751 11.3841 10.1148 11.5328C9.66575 11.6781 9.20977 11.7518 8.75972 11.7518C8.30967 11.7518 7.85385 11.6781 7.40428 11.5328C6.94446 11.3842 6.5718 11.22 6.29702 11.0447C5.97835 10.8411 5.68996 10.6553 5.43986 10.4923C5.03996 10.2316 4.83248 10.1437 4.6181 10.1437C4.07208 10.1437 3.56195 10.2361 3.10165 10.4184C2.6399 10.6013 2.24016 10.8523 1.91348 11.1649C1.60153 11.4635 1.32324 11.8261 1.08675 12.2425C0.858765 12.6439 0.674195 13.0625 0.53833 13.4869C0.407112 13.8972 0.297363 14.346 0.212128 14.8209C0.127693 15.2916 0.0703354 15.7381 0.041977 16.1483C0.0140991 16.5501 0 16.9672 0 17.3884C0 18.4846 0.348473 19.372 1.03565 20.0265C1.71433 20.6724 2.61234 21 3.70439 21H13.816C14.9081 21 15.8058 20.6725 16.4846 20.0265C17.1719 19.3725 17.5204 18.4849 17.5204 17.3882C17.5202 16.9651 17.506 16.5477 17.478 16.1478Z" fill="#FB1242"/>
</svg>
