<svg width="8" height="7" viewBox="0 0 8 7" fill="none" xmlns="http://www.w3.org/2000/svg">
<path d="M7.09331 2.4649L4.89585 2.14554L3.91353 0.154059C3.8867 0.0995338 3.84256 0.0553941 3.78803 0.0285641C3.65129 -0.0389435 3.48511 0.0173129 3.41674 0.154059L2.43442 2.14554L0.236956 2.4649C0.176372 2.47355 0.120981 2.50211 0.0785723 2.54539C0.0273026 2.59809 -0.000949356 2.66898 2.43598e-05 2.7425C0.000998075 2.81601 0.0311178 2.88613 0.0837652 2.93745L1.67366 4.48753L1.29804 6.67634C1.28923 6.72726 1.29486 6.77962 1.3143 6.8275C1.33374 6.87538 1.3662 6.91685 1.40801 6.94722C1.44982 6.97758 1.4993 6.99562 1.55085 6.9993C1.60239 7.00297 1.65393 6.99213 1.69962 6.96801L3.66513 5.93462L5.63065 6.96801C5.68431 6.99657 5.74662 7.00609 5.80634 6.9957C5.95693 6.96974 6.0582 6.82693 6.03223 6.67634L5.65661 4.48753L7.2465 2.93745C7.28978 2.89504 7.31834 2.83965 7.32699 2.77907C7.35036 2.62761 7.24477 2.4874 7.09331 2.4649Z" fill="#FAC102"/>
</svg>
